<svg>
  <symbol id="phone" fill="none" xmlns="http://www.w3.org/2000/svg">
    <path
      d="M20.01 15.38c-1.23 0-2.42-.2-3.53-.56a.977.977 0 0 0-1.01.24l-1.57 1.97c-2.83-1.35-5.48-3.9-6.89-6.83l1.95-1.66c.27-.28.35-.67.24-1.02-.37-1.11-.56-2.3-.56-3.53 0-.54-.45-.99-.99-.99H4.19C3.65 3 3 3.24 3 3.99 3 13.28 10.73 21 20.01 21c.71 0 .99-.63.99-1.18v-3.45c0-.54-.45-.99-.99-.99Z"
      fill="currentColor" />
  </symbol>
  <symbol id="email" fill="none" xmlns="http://www.w3.org/2000/svg">
    <path
      d="M20 4H4c-1.1 0-1.99.9-1.99 2L2 18c0 1.1.9 2 2 2h16c1.1 0 2-.9 2-2V6c0-1.1-.9-2-2-2Zm-.4 4.25-7.07 4.42c-.32.2-.74.2-1.06 0L4.4 8.25a.85.85 0 1 1 .9-1.44L12 11l6.7-4.19a.85.85 0 1 1 .9 1.44Z"
      fill="currentColor" />
  </symbol>
  <symbol id="twitter" fill="none" xmlns="http://www.w3.org/2000/svg">
    <circle cx="23" cy="23" r="23" fill="currentColor" />
    <path
      d="M38.524 13.583c-1.113.493-2.31.826-3.567.977a6.226 6.226 0 0 0 2.73-3.437 12.4 12.4 0 0 1-3.943 1.506 6.213 6.213 0 0 0-10.584 5.667 17.638 17.638 0 0 1-12.803-6.49 6.208 6.208 0 0 0-.84 3.122 6.214 6.214 0 0 0 2.763 5.17 6.197 6.197 0 0 1-2.813-.777v.08a6.213 6.213 0 0 0 4.982 6.091 6.257 6.257 0 0 1-2.805.107 6.215 6.215 0 0 0 5.803 4.312 12.464 12.464 0 0 1-7.715 2.66c-.496 0-.99-.03-1.483-.087a17.566 17.566 0 0 0 9.52 2.79c11.427 0 17.674-9.463 17.674-17.671 0-.267-.007-.536-.02-.803a12.627 12.627 0 0 0 3.098-3.213l.003-.004Z"
      fill="#fff" />
  </symbol>
  <symbol id="telegram" fill="none" xmlns="http://www.w3.org/2000/svg">
    <circle cx="23" cy="23" r="23" fill="currentColor" />
    <path
      d="m36.919 13.162-4.225 19.925c-.319 1.407-1.15 1.757-2.332 1.094l-6.437-4.743-3.106 2.987c-.344.344-.631.631-1.294.631l.463-6.556 11.93-10.781c.52-.463-.112-.719-.805-.256l-14.75 9.287-6.35-1.988c-1.382-.43-1.407-1.38.287-2.043l24.838-9.569c1.15-.431 2.156.256 1.78 2.012Z"
      fill="#fff" />
  </symbol>
</svg>
